#!OML:ASF E:\motion texture\Top Level 1\Subject 1\Session 1\male.ASF
:FULLY-SPECIFIED
:DEGREES
408
root -10.2777 18.0902 4.01101 441.753 -88.4251 -439.847
lowerback -3.14416 1.31365 1.75486
upperback -2.7986 1.67139 1.05213
thorax -1.08897 0.796719 0.131567
lowerneck -5.04151 -1.95139 -6.84883
upperneck -27.8222 -2.03969 10.5486
head -7.47342 -1.68545 4.90609
rclavicle -8.57259e-015 -4.77083e-015
rhumerus 48.7942 19.1562 -43.1771
rradius 90.1909
rwrist 15.9037
rhand -21.3009 -21.4635
rfingers 7.12502
rthumb 5.08385 -411.382
lclavicle -8.57259e-015 -4.77083e-015
lhumerus -12.0023 -17.0558 85.5969
lradius 73.4059
lwrist -16.9727
lhand -16.7085 25.8967
lfingers 7.12502
lthumb 9.51658 55.6618
rfemur -22.772 -5.76826 19.8975
rtibia 63.0698
rfoot 5.38881 -10.4273
rtoes 11.1143
lfemur -8.77067 -3.04364 -19.9236
ltibia 15.8785
lfoot -6.48956 -0.639071
ltoes 3.517
409
root -10.3968 18.0971 4.00873 430.412 -88.4057 -428.536
lowerback -3.09764 1.24551 1.59561
upperback -2.82815 1.58583 1.02419
thorax -1.14956 0.755929 0.188615
lowerneck -4.9267 -1.93277 -6.87234
upperneck -27.9308 -2.01686 10.546
head -7.53217 -1.67472 4.91632
rclavicle -2.75814e-015 -3.37934e-015
rhumerus 49.2739 18.7552 -42.9412
rradius 90.2931
rwrist 15.9759
rhand -21.262 -21.3458
rfingers 7.12502
rthumb 5.12137 -411.264
lclavicle -2.75814e-015 -3.37934e-015
lhumerus -10.0675 -18.0006 84.5357
lradius 74.8994
lwrist -16.5992
lhand -16.8372 26.1161
lfingers 7.12502
lthumb 9.39247 55.8868
rfemur -23.5028 -6.08476 19.8769
rtibia 62.7658
rfoot 4.95882 -11.0098
rtoes 11.3522
lfemur -8.16951 -3.14151 -20.0367
ltibia 15.6343
lfoot -6.79709 -0.827026
ltoes 3.40372
410
root -10.5159 18.1036 4.00553 419.79 -88.3178 -417.932
lowerback -3.05327 1.18056 1.44273
upperback -2.86253 1.50397 0.995954
thorax -1.21337 0.716892 0.242064
lowerneck -4.81731 -1.91752 -6.89898
upperneck -28.0374 -1.99801 10.5462
head -7.58897 -1.6656 4.92801
rclavicle 3.76448e-015 -3.97569e-015
rhumerus 49.7759 18.3155 -42.726
rradius 90.3882
rwrist 16.0387
rhand -21.2456 -21.2617
rfingers 7.12502
rthumb 5.13719 -411.179
lclavicle 3.76448e-015 -3.97569e-015
lhumerus -8.02064 -18.8505 83.3726
lradius 76.3531
lwrist -16.1803
lhand -16.9615 26.3385
lfingers 7.12502
lthumb 9.27245 56.1146
rfemur -24.199 -6.38834 19.869
rtibia 62.3169
rfoot 4.48711 -11.584
rtoes 11.5788
lfemur -7.58247 -3.24055 -20.1332
ltibia 15.3872
lfoot -7.09589 -1.01141
ltoes 3.28611
411
root -10.6349 18.1096 4.0014 410.611 -88.1711 -408.758
lowerback -3.00966 1.11904 1.29584
upperback -2.90298 1.42622 0.967407
thorax -1.28251 0.679802 0.292069
lowerneck -4.70969 -1.90568 -6.9254
upperneck -28.1425 -1.98394 10.5454
head -7.64465 -1.65851 4.93937
rclavicle 1.86361e-014 1.47101e-014
rhumerus 50.2973 17.8405 -42.5327
rradius 90.475
rwrist 16.0983
rhand -21.2576 -21.2048
rfingers 7.12502
rthumb 5.12565 -411.123
lclavicle 1.86361e-014 1.47101e-014
lhumerus -5.86701 -19.5951 82.1156
lradius 77.7589
lwrist -15.7159
lhand -17.0841 26.5652
lfingers 7.12502
lthumb 9.1542 56.3465
rfemur -24.858 -6.677 19.872
rtibia 61.7241
rfoot 3.9802 -12.144
rtoes 11.795
lfemur -7.00986 -3.33932 -20.213
ltibia 15.1392
lfoot -7.38684 -1.19374
ltoes 3.16546
412
root -10.754 18.1151 3.99638 403.108 -87.9788 -401.248
lowerback -2.96892 1.06122 1.15523
upperback -2.94772 1.35287 0.938744
thorax -1.35402 0.644835 0.338726
lowerneck -4.60913 -1.89726 -6.96056
upperneck -28.244 -1.97297 10.5523
head -7.69731 -1.6524 4.95474
rclavicle -6.53505e-015 -1.21259e-014
rhumerus 50.8403 17.3302 -42.3591
rradius 90.555
rwrist 16.15
rhand -21.2931 -21.1821
rfingers 7.12502
rthumb 5.09136 -411.101
lclavicle -6.53505e-015 -1.21259e-014
lhumerus -3.60958 -20.2238 80.7738
lradius 79.1086
lwrist -15.2076
lhand -17.2047 26.7918
lfingers 7.12502
lthumb 9.03784 56.5782
rfemur -25.4785 -6.94912 19.8845
rtibia 60.9904
rfoot 3.44407 -12.6842
rtoes 12.0083
lfemur -6.45207 -3.43563 -20.2758
ltibia 14.8914
lfoot -7.67041 -1.37458
ltoes 3.0465
